<svg xmlns="http://www.w3.org/2000/svg" xmlns:xlink="http://www.w3.org/1999/xlink" version="1.1" id="Layer_1" x="0px" y="0px" style="enable-background:new 0 0 90.92 88.32;" xml:space="preserve" viewBox="0 0 90.91 88.32">
<style type="text/css">
	.st0{fill:#ffffff;}
</style>
<path class="st0" d="M36.4,38.01c1.3-7.4,2.4-9.6,4.8-14.9c2-4.5,5.5-8.7,8.4-12.9c3.9-5.6,10.7-7.7,7.3-9.1  c-2.7-1.1-13.2-1.9-22.5,0.2c-9.4,2-19.4,8-24.4,14.6c-3.9,5.1-12.3,19.7-9.4,35.2s9,20.6,13.4,25.2s11.9,8.2,16.7,10  c6.1,2.3,21,2.3,23.1,1.6c1.4-0.5,2.3-0.5-1.8-4c-4.2-3.6-8.3-10.4-11.2-16.2c-2.9-5.8-4.7-14.7-5.1-18.9c-0.1-1.1-0.3-2.1-1.9-2  s-5.4-0.3-6.7,0.4c-0.9,0.4-0.8,2.4-0.8,2.9c-0.3,2.5,1.2,15.8-1.1,15.3c-2.1-0.5-5.2-4.8-7.6-8.9c-2.3-4.1-4.2-10.7-2.1-18.6  c2.1-7.9,5.9-14.1,8.4-15c3.2-1.1,2,5.3,2.3,10.5c0.3,5.1,0.6,7.3,1.5,7.3c3.1,0.1,6.2-0.1,7.3,0C36.5,40.71,36.4,38.01,36.4,38.01"/>
<path class="st0" d="M65.9,4.71c-0.9-0.2-11.8,9.8-14.4,14.2c-1.8,3-5.8,10.3-6.5,14.6c-0.8,4.3-1.7,6.7,0.9,6.8  c4.4,0.2,20.1,0.4,21.7,0.5c2.4,0.1,2.7,4.9,0.1,5.1c-4.7,0.4-19.2,0.1-22.1,0.2c-1.8,0.1-2.1,0.9-1.9,3.7  c0.5,6.5,3.4,14.6,4.3,16.4c3.2,6.5,12.4,18.4,15.4,18.4c2.6,0,10.2-5.7,12.5-7.5s12-11.7,14.1-23.9c2.3-13.3-0.4-20.6-0.9-22.7  c-0.3-1.1-25.5-0.6-27.6-1.3c-2-0.7,0.4-6.1,3.6-6.9c3.1-0.8,20,0.8,20-0.4C84.9,20.01,73.2,6.51,65.9,4.71"/>
</svg>